<svg width="100" height="100" viewBox="0 0 100 100" fill="none" xmlns="http://www.w3.org/2000/svg">
<path d="M21.2212 82.2028H54.1312C58.711 82.2028 62.4365 78.478 62.4365 73.8993V61.1827C62.4365 60.493 61.8762 59.9327 61.1865 59.9327C60.4967 59.9327 59.9365 60.493 59.9365 61.1827V73.8993C59.9365 77.099 57.3316 79.7028 54.1312 79.7028H21.2212C18.0197 79.7028 15.4159 77.098 15.4159 73.8993L15.4164 33.505C15.4879 31.7818 16.7831 30.375 18.4979 30.1651C20.4197 29.9302 22.1747 31.3035 22.4114 33.222C22.4762 33.7437 22.8562 34.1651 23.3646 34.2884C23.8713 34.4084 24.4047 34.1969 24.6927 33.7633L33.6324 20.2984H54.1324C57.3321 20.2984 59.9377 22.9033 59.9377 26.1037V35.6355C59.9377 36.3253 60.498 36.8855 61.1877 36.8855C61.8774 36.8855 62.4377 36.3253 62.4377 35.6355V26.1015C62.4377 21.5217 58.7128 17.7963 54.1324 17.7963L32.9595 17.7968C32.9277 17.7968 32.906 17.8152 32.8781 17.8169C32.7447 17.827 32.618 17.8621 32.4897 17.9168C32.4378 17.9386 32.3848 17.9486 32.3379 17.9754C32.3211 17.9854 32.3027 17.9854 32.2877 17.9955L15.6905 28.5831C15.6621 28.6015 15.6503 28.6283 15.6224 28.6478C14.0543 29.6846 13.0007 31.4229 12.916 33.4546V73.9004C12.916 78.4785 16.6409 82.2034 21.2207 82.2034L21.2212 82.2028ZM23.951 30.3557C23.2708 29.3222 22.2774 28.5343 21.1329 28.0773L28.6496 23.2804L23.951 30.3557Z" fill="#000000"/>
<path d="M78.2384 23.4615L77.9617 23.7466C76.5632 22.9185 74.7301 23.1099 73.5448 24.3264L67.5337 30.5167C67.0521 31.0117 67.0638 31.8035 67.5604 32.2868C67.8037 32.5234 68.1174 32.6401 68.4304 32.6401C68.7535 32.6401 69.0822 32.5134 69.3272 32.2584L75.3389 26.0687C75.5242 25.8789 75.7658 25.7835 76.0108 25.7556L71.667 30.2266C71.6637 30.2266 71.667 30.2266 71.667 30.2283L50.4656 52.0554C50.3105 52.2156 50.2005 52.4137 50.1492 52.6285L48.3228 60.1068C48.2179 60.5371 48.3479 60.9919 48.666 61.2999C48.9026 61.5298 49.2162 61.6531 49.5359 61.6531C49.6442 61.6531 49.7575 61.6381 49.8657 61.6079L57.2876 59.5644C57.5024 59.5041 57.6978 59.3908 57.854 59.2295L85.6269 30.6353C86.5867 29.6487 87.1017 28.3467 87.0817 26.9717C87.0616 25.595 86.5069 24.3098 85.5197 23.3517C83.5487 21.4387 80.157 21.489 78.2384 23.4622L78.2384 23.4615ZM56.297 57.2472L52.6854 58.2421L51.609 57.1919L52.4974 53.5552L72.5888 32.8666L76.3907 36.5598L56.297 57.2472ZM83.8356 28.8972L78.1359 34.7672L74.334 31.0736L80.0354 25.2053C81.0204 24.1902 82.7687 24.1651 83.7837 25.1501C84.2921 25.6434 84.5789 26.3052 84.5873 27.0133C84.594 27.7187 84.3306 28.3889 83.8356 28.8973L83.8356 28.8972Z" fill="#000000"/>
<path d="M23.3236 63.9071C23.092 65.199 24.5301 65.7502 25.0022 65.9322C25.3856 66.079 28.8008 67.3357 30.5391 66.2838C30.9275 66.0489 31.5273 65.5221 31.6289 64.4802C34.3689 64.3988 37.5542 64.3686 40.274 64.3402C40.9638 64.3335 41.5106 63.7671 41.504 63.0768C41.4973 62.3898 40.9309 61.8402 40.2473 61.8402H40.2339C36.379 61.877 33.404 61.9233 31.1056 61.9986C30.0955 59.6672 27.8304 57.0121 25.9773 56.2688C25.0722 55.9038 24.1704 55.9373 23.3724 56.3603C21.1241 57.5584 20.2741 61.5456 19.2893 66.1639C19.1459 66.8391 19.5761 67.5037 20.2508 67.6472C20.339 67.6673 20.4243 67.6773 20.5142 67.6773C21.0906 67.6773 21.6074 67.2755 21.7324 66.6873C22.4076 63.5356 23.3289 59.2208 24.5471 58.5723C24.6185 58.5338 24.7351 58.4691 25.0454 58.5941C26.1654 59.0456 27.5287 60.6924 28.3686 62.1275C24.3094 62.377 23.5108 62.8653 23.324 63.9071L23.3236 63.9071Z" fill="#000000"/>
<path d="M45.4981 41.6385H22.3838C21.6941 41.6385 21.1338 42.1988 21.1338 42.8885C21.1338 43.5766 21.6941 44.1385 22.3838 44.1385H45.4981C46.1878 44.1385 46.7481 43.5766 46.7481 42.8885C46.7481 42.1983 46.1878 41.6385 45.4981 41.6385Z" fill="#000000"/>
<path d="M45.498 33.4286H33.9395C33.2497 33.4286 32.6895 33.9889 32.6895 34.6786C32.6895 35.3683 33.2497 35.9286 33.9395 35.9286H45.498C46.1878 35.9286 46.748 35.3683 46.748 34.6786C46.748 33.9883 46.1878 33.4286 45.498 33.4286Z" fill="#000000"/>
<path d="M46.7481 51.0985C46.7481 50.4088 46.1878 49.8485 45.4981 49.8485H22.3838C21.6941 49.8485 21.1338 50.4088 21.1338 51.0985C21.1338 51.7882 21.6941 52.3485 22.3838 52.3485H45.4981C46.1878 52.3485 46.7481 51.7888 46.7481 51.0985Z" fill="#000000"/>
</svg>
