<svg width="100" height="100" viewBox="0 0 100 100" fill="none" xmlns="http://www.w3.org/2000/svg">
<path d="M50.0155 13.7472C49.9747 13.7466 49.934 13.7483 49.8938 13.7516C49.7153 13.7667 49.5417 13.8203 49.386 13.9079L31.2732 24.1596C30.8831 24.3834 30.6437 24.7991 30.6454 25.2483H30.6353V45.7383L30.6359 45.7389C30.5265 46.2802 30.7854 46.8287 31.2732 47.0888L49.386 57.3326C49.7672 57.548 50.2326 57.548 50.6137 57.3326L68.7266 47.0888C69.207 46.831 69.4649 46.2914 69.3638 45.7556V25.2485H69.3538H69.3544C69.356 24.7993 69.1161 24.3835 68.7266 24.1598L50.6137 13.9081C50.4312 13.8054 50.2253 13.7496 50.0155 13.7473L50.0155 13.7472ZM49.996 16.4375L65.5802 25.2387L49.996 34.0523L34.4202 25.2387L49.996 16.4375ZM14.996 24.3816C14.3096 24.3844 13.7538 24.9402 13.751 25.6266V72.1337C13.7482 72.824 14.3057 73.386 14.996 73.3888H34.9717L31.451 83.7503L26.0681 83.7498C26.0285 83.7481 25.9883 83.7481 25.9487 83.7498C25.2601 83.786 24.7299 84.3714 24.7629 85.0606C24.7958 85.7492 25.3789 86.2821 26.0681 86.252H73.9324C74.621 86.2492 75.1779 85.6901 75.1779 85.0009C75.1779 84.3123 74.621 83.7531 73.9324 83.7498H68.549L65.0282 73.3882H85.004L85.0045 73.3888C85.6948 73.386 86.2523 72.824 86.2495 72.1337V25.6266C86.2467 24.9402 85.6909 24.3844 85.0045 24.3816H75.3069C74.971 24.3744 74.6462 24.5033 74.4057 24.7382C74.1652 24.9737 74.0302 25.2957 74.0302 25.6316C74.0302 25.9681 74.1652 26.2901 74.4057 26.525C74.6462 26.7605 74.971 26.8889 75.3069 26.8816H83.7495V62.0288H16.2524V26.8816H24.6949C25.0309 26.8889 25.3557 26.7605 25.5962 26.525C25.8367 26.2901 25.9717 25.9681 25.9717 25.6316C25.9717 25.2957 25.8367 24.9737 25.5962 24.7382C25.3557 24.5033 25.0309 24.3743 24.6949 24.3816H14.996ZM33.136 27.3822L48.7488 36.2176L48.7494 54.099L33.1365 45.2709L33.136 27.3822ZM66.8645 27.3822V45.2707L51.2517 54.0939V36.2182L66.8645 27.3822ZM16.2517 64.5308H83.7488V70.8879H16.2517V64.5308ZM37.6217 73.3879H62.3802L65.906 83.7495H34.0974L37.6217 73.3879Z" fill="#000000"/>
</svg>
