<svg width="100" height="100" viewBox="0 0 100 100" fill="none" xmlns="http://www.w3.org/2000/svg">
<path d="M89.6346 73.7243L72.3846 56.4743C72.4699 56.4074 72.5598 56.346 72.653 56.2907L77.2507 53.8443C78.4265 53.226 79.3143 52.173 79.7244 50.9096C80.1345 49.6462 80.0352 48.2729 79.4471 47.082L77.1569 42.3984V42.3979C76.8009 41.6747 76.8009 40.8265 77.1569 40.1033L79.4471 35.4197V35.4192C80.0352 34.2283 80.1346 32.855 79.7244 31.5916C79.3142 30.3282 78.4264 29.2752 77.2507 28.6569L72.648 26.2133C71.9348 25.8372 71.437 25.1514 71.3009 24.3568L70.3996 19.2218C70.1753 17.9132 69.4488 16.7435 68.3745 15.9629C67.3003 15.1822 65.9638 14.8519 64.6496 15.0421L59.4872 15.7732H59.4867C58.6892 15.8842 57.8845 15.6231 57.3042 15.0645L53.5542 11.4395C52.6033 10.512 51.3277 9.99304 49.9995 9.99304C48.6708 9.99304 47.3952 10.512 46.4442 11.4395L42.6942 15.0645C42.1139 15.6231 41.3097 15.8842 40.5118 15.7732L35.3482 15.0421C34.0341 14.8524 32.6975 15.1828 31.6239 15.9635C30.5497 16.7441 29.8232 17.9132 29.5982 19.2219L28.697 24.3569C28.5608 25.1521 28.062 25.8385 27.3482 26.2135L22.7505 28.657C21.5747 29.2753 20.6869 30.3283 20.2768 31.5917C19.8667 32.8552 19.966 34.2285 20.5541 35.4193L22.8443 40.1029V40.1034C23.2003 40.8267 23.2003 41.6749 22.8443 42.398L20.5491 47.0822C19.961 48.273 19.8616 49.6463 20.2718 50.9097C20.682 52.1731 21.5698 53.2262 22.7455 53.8444L27.3532 56.288C27.4459 56.3438 27.5351 56.4052 27.6205 56.4716L10.3705 73.7216C10.0491 74.043 9.92689 74.5135 10.0524 74.9504C10.1774 75.3879 10.5301 75.7222 10.9732 75.8243L21.7021 78.3003L24.1781 89.0292V89.0297C24.2802 89.4722 24.615 89.8249 25.0519 89.9505C25.4889 90.0755 25.9593 89.9538 26.2807 89.6318L45.635 70.2775L46.4464 71.0638H46.4459C47.3973 71.9913 48.673 72.5102 50.0011 72.5102C51.3293 72.5102 52.605 71.9913 53.5564 71.0638L54.3678 70.2775L73.725 89.6347C74.0464 89.9561 74.5168 90.0783 74.9538 89.9528C75.3907 89.8278 75.7255 89.4751 75.8276 89.032L78.3036 78.3032L89.0325 75.8272C89.4756 75.725 89.8283 75.3902 89.9533 74.9533C90.0788 74.5163 89.9566 74.0459 89.6352 73.7245L89.6346 73.7243ZM26.1031 86.2718L23.9591 76.9793C23.852 76.5134 23.4876 76.149 23.0216 76.0418L13.7292 73.8978L28.8178 58.8093L29.6013 63.2791V63.2797C29.8267 64.5877 30.5538 65.7562 31.6275 66.537C32.7018 67.3176 34.0377 67.6486 35.3513 67.4594L40.5137 66.7284H40.5142C41.3117 66.6184 42.1158 66.8796 42.6967 67.4371L43.8356 68.5381L26.1031 86.2718ZM48.1846 69.266L46.5031 67.641L44.4356 65.641H44.4361C43.4875 64.7175 42.2157 64.2013 40.892 64.2008C40.6492 64.2013 40.4065 64.2186 40.166 64.2521L35.0008 64.9837C34.329 65.0825 33.6454 64.9139 33.0957 64.5144C32.5466 64.1154 32.1755 63.5166 32.0622 62.8469L31.161 57.7119V57.7125C31.0505 57.1294 30.839 56.5702 30.536 56.0596C30.5075 55.9988 30.4746 55.9402 30.4372 55.885C29.9701 55.1255 29.3116 54.5027 28.5271 54.0797L23.9211 51.6361C23.3195 51.3208 22.8653 50.7829 22.6549 50.1378C22.445 49.4922 22.4953 48.7902 22.7961 48.1814L25.0856 43.5011C25.7821 42.0843 25.7821 40.4253 25.0856 39.0084L22.7955 34.3248H22.796C22.4953 33.716 22.445 33.014 22.6549 32.3684C22.8652 31.7228 23.3195 31.1854 23.921 30.8701L28.5259 28.4265C29.9227 27.6916 30.898 26.349 31.1659 24.7937L32.0671 19.6587C32.1782 18.989 32.5482 18.3897 33.0967 17.9895C33.6452 17.5889 34.3288 17.4203 35.0007 17.5186L40.1643 18.2496V18.2501C41.7263 18.4745 43.3038 17.9611 44.4344 16.8612L48.1844 13.2362C48.6705 12.7619 49.3222 12.4968 50.0008 12.4968C50.6794 12.4968 51.3312 12.7619 51.8173 13.2362L55.5673 16.8612C56.6973 17.9616 58.2743 18.475 59.8357 18.2513L65.0008 17.5186C65.6727 17.4198 66.3569 17.5878 66.906 17.9873C67.4557 18.3863 67.8267 18.9851 67.9395 19.6553L68.8407 24.7903V24.7897C69.1086 26.345 70.0834 27.687 71.4797 28.4226L76.0857 30.8662C76.6873 31.1815 77.1415 31.7194 77.3519 32.3645C77.5617 33.0101 77.5115 33.7121 77.2107 34.3209L74.9161 39.0012C74.2197 40.418 74.2197 42.077 74.9161 43.4939L77.2063 48.1775H77.2057C77.5065 48.7863 77.5567 49.4883 77.3469 50.1339C77.1365 50.7795 76.6823 51.3169 76.0807 51.6322L71.4759 54.0757C70.0791 54.8107 69.1037 56.1533 68.8359 57.7086L67.9346 62.8436C67.8219 63.5127 67.4519 64.1109 66.9039 64.511C66.3554 64.9106 65.6724 65.0802 65.0011 64.9837L59.8348 64.251C58.2734 64.0272 56.6958 64.54 55.5647 65.6399L51.8147 69.2649C51.3292 69.7382 50.6779 70.0032 49.9999 70.0038C49.3219 70.0038 48.6707 69.7393 48.1847 69.2661L48.1846 69.266ZM76.9803 76.0423C76.5143 76.1495 76.1499 76.5139 76.0428 76.9798L73.8988 86.2723L56.1645 68.538L57.3018 67.437H57.3023C57.8832 66.8801 58.6874 66.6189 59.4847 66.7283L64.6483 67.4593C65.9625 67.649 67.299 67.3181 68.3726 66.5374C69.4463 65.7567 70.1733 64.5877 70.3983 63.2796L71.1818 58.8097L86.2718 73.8983L76.9803 76.0423Z" fill="#000000"/>
<path d="M68.7499 41.25C68.7505 36.7606 67.1395 32.4201 64.2098 29.019C64.0027 28.7416 63.6897 28.5631 63.3459 28.5257C63.0016 28.4877 62.6573 28.5943 62.395 28.8198C62.1328 29.0452 61.9754 29.3694 61.9603 29.7149C61.9458 30.0603 62.0753 30.3968 62.3175 30.644C65.9275 34.8433 67.1477 40.5933 65.5535 45.8968C63.9597 51.2004 59.7716 55.3254 54.4446 56.8383C49.1176 58.3517 43.3866 57.0447 39.2432 53.3711C35.0986 49.6976 33.1137 44.1647 33.977 38.6954C34.8403 33.225 38.4329 28.5727 43.5066 26.3538C48.5809 24.1351 54.4357 24.6563 59.038 27.7367C59.3131 27.9331 59.6558 28.0101 59.9884 27.9493C60.3204 27.889 60.6145 27.6965 60.8025 27.4163C60.9906 27.1357 61.0576 26.7908 60.9872 26.4604C60.9175 26.1301 60.7166 25.8421 60.4309 25.6619C55.7652 22.5386 49.9455 21.6707 44.5709 23.2963C39.197 24.9219 34.8343 28.8706 32.6825 34.0557C30.5302 39.2416 30.8147 45.1183 33.4587 50.0715C36.1021 55.0246 40.8258 58.5325 46.332 59.6312C51.8381 60.7294 57.5463 59.3025 61.8877 55.7427C66.2298 52.183 68.7477 46.8649 68.7498 41.2499L68.7499 41.25Z" fill="#000000"/>
<path d="M57.2193 35.3901L47.4793 45.6473L42.8141 40.3326C42.6021 40.062 42.2885 39.8901 41.9458 39.8583C41.6038 39.8265 41.2634 39.937 41.005 40.1641C40.7466 40.3912 40.5932 40.7143 40.5809 41.0581C40.5686 41.4013 40.6981 41.735 40.9391 41.9799L46.5006 48.3237C46.7322 48.5882 47.0642 48.7427 47.4157 48.75H47.4408H47.4403C47.7835 48.75 48.111 48.6088 48.3465 48.3599L59.028 37.1099C59.269 36.8722 59.403 36.5469 59.3996 36.2081C59.3963 35.87 59.2557 35.5474 59.0101 35.3142C58.7646 35.0809 58.4348 34.9576 58.0966 34.9721C57.7584 34.986 57.4404 35.1373 57.2155 35.3901L57.2193 35.3901Z" fill="#000000"/>
</svg>
