<svg viewBox="0 0 99.33 97.5" xmlns="http://www.w3.org/2000/svg"><g id="Layer_2" data-name="Layer 2"><g id="Layer_1-2" data-name="Layer 1"><g id="calendar_thin_line_minimal_icon" fill="#000" data-name="calendar thin line minimal icon"><path d="m33.61 19.05a1.5 1.5 0 0 1 -1.5-1.5v-16.05a1.5 1.5 0 0 1 3 0v16.05a1.5 1.5 0 0 1 -1.5 1.5z"></path><path d="m65.72 19.05a1.5 1.5 0 0 1 -1.5-1.5v-16.05a1.5 1.5 0 0 1 3 0v16.05a1.5 1.5 0 0 1 -1.5 1.5z"></path><path d="m69.75 77a1.51 1.51 0 0 1 -1.5-1.56l1.57-42.34h-9.82a1.5 1.5 0 0 1 0-3h11.38a1.51 1.51 0 0 1 1.49 1.56l-1.62 43.93a1.51 1.51 0 0 1 -1.5 1.41z"></path><path d="m38.78 77c-6.87 0-13.82-2.16-16-4.27a1.5 1.5 0 0 1 2.09-2.16c3.49 3.39 27.1 7.52 27-5.77.73-12.12-14.87-10.52-18.21-9.8a1.51 1.51 0 0 1 -1.43-2.46l17.08-19.44h-25.46a1.5 1.5 0 0 1 0-3h28.77a1.51 1.51 0 0 1 1.13 2.49l-16.68 19c3.94-.24 9.9.08 13.85 3.4 2.76 2.31 4.09 5.66 4 10-.1 8.72-8.27 12.21-16.14 12.01z"></path><path d="m80 97.28a1.5 1.5 0 0 1 -1.49-1.5v-17.57a1.5 1.5 0 0 1 1.5-1.5h17.56a1.51 1.51 0 0 1 1.39.93 1.5 1.5 0 0 1 -.33 1.63l-17.53 17.57a1.5 1.5 0 0 1 -1.1.44zm1.51-17.57v12.44l12.49-12.44z"></path><path d="m79 97.5h-76.5a2.5 2.5 0 0 1 -2.5-2.5v-85.57a2.5 2.5 0 0 1 2.5-2.5h94.33a2.51 2.51 0 0 1 2.5 2.5v67.78a4.27 4.27 0 0 1 -1.15 2.79l-16.38 16.35a4.19 4.19 0 0 1 -2.8 1.15zm-76-3h76a1.26 1.26 0 0 0 .64-.27l16.42-16.37a1.55 1.55 0 0 0 .27-.65v-67.28h-93.33z"></path></g></g></g></svg>